<svg id="图层_1" data-name="图层 1" xmlns="http://www.w3.org/2000/svg" viewBox="0 0 340.16 101.75"><defs><style>.cls-2{fill:#fff}</style></defs><path d="M194.06 170.43a5.33 5.33 0 1 0 10.65.46 3.53 3.53 0 0 0 0-.46 5.17 5.17 0 0 0-5.07-5.27h-.2a5.26 5.26 0 0 0-5.38 5.14v.13" transform="translate(-127.56 -118.62)" style="fill:#ca151f"/><path class="cls-2" d="M178.44 129.79a54 54 0 0 1 27.21 7.34l9.3-7.34a65.23 65.23 0 0 0-73 0l9.31 7.34a54 54 0 0 1 27.19-7.34M178.44 209.22a54 54 0 0 1-27.19-7.34l-9.31 7.34a65.27 65.27 0 0 0 73 0l-9.3-7.34a54.07 54.07 0 0 1-27.21 7.34M138.73 169.5a53.81 53.81 0 0 1 7.35-27.2l-7.35-9.3a65.23 65.23 0 0 0 0 73l7.35-9.41a53.33 53.33 0 0 1-7.35-27.1M210.81 142.3a53.87 53.87 0 0 1 0 54.3l7.34 9.41a65.23 65.23 0 0 0 0-73ZM161.28 186a16.44 16.44 0 0 1-12.52-5.79l-.62-.62v9.92l.11.11a22.94 22.94 0 0 0 13.75 4.29 14.53 14.53 0 0 0 9.94-3.52 13.47 13.47 0 0 0 4-9.72c0-8.79-7.76-12.82-12.31-15.2l-.62-.31c-3.51-1.76-6.3-3.21-6.3-5.58a3.9 3.9 0 0 1 2.37-3.94 10.65 10.65 0 0 1 4.35-.82 15.88 15.88 0 0 1 10.13 3.51l.62.52v-8.48l-.1-.1c-.63-.52-4.14-3.11-11.07-3.11h-1c-8.06.31-13.85 5.49-13.85 12.42 0 7.76 6 10.55 11.17 13l.31.2c4.14 2 7.76 3.93 7.76 7.45 0 1.76-.62 5.69-6.1 5.69M208.75 158.75v-8.48l-.11-.1c0-.11-4.24-3.11-12.4-3.11A47.54 47.54 0 0 0 181 150l-.21.1v44.16h8.69v-37.89h.21a19.9 19.9 0 0 1 7-1.24h.42c6.71.21 10.34 2.69 11.06 3.2Z" transform="translate(-127.56 -118.62)"/><path class="cls-2" d="M161.53 46.26h14.9v-5.79h-9.17v-7.49h8.05v-5.51h-8.05v-6.8h9.2v-5.61h-14.93v31.2z"/><path class="cls-2" d="M323.05 142.94c0-1.95-.39-5.78-3.1-7.69-1.69-1.21-3.48-1.66-7.34-1.56h-6.48v31.16H312V153.5l1.55-.14c2.2 5 2.7 5.72 4.8 11.52h6.76c-1.26-2.17-5.74-11.32-6.55-13.26 1.48-.91 4.47-2.61 4.47-8.68m-7.28 4c-.91.73-2.1.81-3.75.85v-8.71a10.78 10.78 0 0 1 1.39-.06c1.28 0 3.81.23 3.81 3.93 0 1.17-.22 3-1.45 4" transform="translate(-127.56 -118.62)"/><path class="cls-2" d="M114.96 15.06h5.4v31.21h-5.4zM143.35 20.81h5.47v25.45h5.43V20.81h5.5v-5.75h-16.4v5.75zM236.92 20.78h5.46v25.48h5.43V20.78h5.49v-5.72h-16.38v5.72zM254.85 15.06h5.41v31.2h-5.41zM330.37 40.7V15.06h-5.4v31.2h14.29V40.7h-8.89z"/><path class="cls-2" d="M408.65 149.05q0-6.92-2.62-11.14c-1.75-2.83-4-4.23-6.87-4.23h-.46c-2.83 0-5.12 1.4-6.87 4.23s-2.63 6.53-2.63 11.14v.61q0 6.78 2.7 11c1.78 2.81 4.1 4.22 6.94 4.22h.16q4.26 0 7-4.22t2.68-11v-.61m-6.13 7.25a4.15 4.15 0 0 1-3.35 2.56h-.48a4.12 4.12 0 0 1-3.34-2.56 15 15 0 0 1-1.37-6.92 14.09 14.09 0 0 1 .06-1.61 13.65 13.65 0 0 1 1.31-5.47c.88-1.73 2.08-2.6 3.58-2.64s2.69.91 3.59 2.64a14 14 0 0 1 1.31 5.47c0 .52.05 1 .05 1.61a15 15 0 0 1-1.36 6.92" transform="translate(-127.56 -118.62)"/><path class="cls-2" d="M136.9 15.06v23.61l-6.56-23.61H123v31.17l4.85.03-.03-23.62 6.46 23.59h7.45V15.06h-4.83zM212.27 15.06V38.7l-6.56-23.64h-7.34v31.2h4.84l-.04-23.61 6.48 23.61h7.46v-31.2h-4.84zM296.15 15.06v23.62l-6.55-23.62h-7.34l-.01 31.2h4.85l-.03-23.62 6.46 23.59h7.46V15.06h-4.84z"/><path class="cls-2" d="M353 133.68h6l7.53 31.2h-5.3l-1.46-6.66h-7.33l-1.54 6.66h-5.29Zm3.2 6.43h-.07l-2.52 12.2h4.91ZM436.86 133.68h6l7.52 31.2h-5.29l-1.45-6.66h-7.34l-1.53 6.66h-5.3Zm3.19 6.43H440l-2.52 12.21h4.9ZM371.2 173.37v31.75h31.21v-31.75Zm27 27.49h-22.77v-24h22.75Z" transform="translate(-127.56 -118.62)"/><path class="cls-2" d="M377.08 194.84v3.41h19.27v-3.41h-2.52l1.95-2.15c-.94-.91-1.86-1.77-2.78-2.57l-.29-.25h2.82v-3.47h-7V183H396v-3.39h-18.58V183h6.72v3.42H378v3.47h6.16v5Zm11.42-5h3.5l-2.19 1.89c.7.72 1.47 1.87 2.33 2.85l.2.23h-3.84ZM444.64 198c1-.82 1.45-2.14 1.45-4.13a11.9 11.9 0 0 0-2.89-8.14h-.05v-.08q1.69-5.21 2.85-9.17v-3.1h-11.06v31.82h3.94V177h3v.18c-.67 2.82-1.51 5.8-2.54 8.95a10.56 10.56 0 0 1 3 6.84 1.73 1.73 0 0 1-.46 1.3 1.82 1.82 0 0 1-1.27.48h-.79v4.65h.5a6.73 6.73 0 0 0 4.32-1.4M449.41 200.49l.08-.19q1.9-4.58 3.67-10.21l-3.67-1a71.77 71.77 0 0 1-4 10.61c1.2.43 2.43.94 3.67 1.52l.29-.69Z" transform="translate(-127.56 -118.62)"/><path class="cls-2" d="M455 204.89a15 15 0 0 0 1.77-.11 3 3 0 0 0 2-1.32 5.93 5.93 0 0 0 .49-3.11v-14H467v-4.13h-20v4.13h7.92v12.32a2.29 2.29 0 0 1-.44 1.58 1.93 1.93 0 0 1-1.5.5c-.88 0-2.68 0-3.16-.06v4.17H455" transform="translate(-127.56 -118.62)"/><path class="cls-2" d="M320.76 55.15h17.37v4.13h-17.37zM340.16 81.04l-3.91-10.5-3.67 1.33 3.77 10.63 3.81-1.46zM197.04 87.12h-4.63v-5.37h-12.96v-3.88h12.96v-5.56h-9.44v-4.07h9.44v-5.55h-12.03V58.8h12.03v-5h4.63v5h12.03v3.89h-12.03v5.55h9.44v4.07h-9.44v5.56h12.95v3.88h-12.95v5.37zM125.48 54.55h3.7v32.2h-3.7z"/><path class="cls-2" d="M246 173.17h-3.52v22.94c0 3.35-.55 5-1.85 5.93l1.67 3.33c1.85-1.12 3.51-3.33 3.7-8v-24.2ZM268.4 197.23v-12h-3.52v12c-.18 2-.18 4.44-5.55 4.44v3.7h.19c3.69-.18 5.92-1.29 7-2.59 1.29 1.3 3.51 2.41 7 2.59h.48v-3.7c-5.37 0-5.55-2.4-5.55-4.44" transform="translate(-127.56 -118.62)"/><path class="cls-2" d="M130.84 58.25v-3.52h16.47v3.52h-7.39l-1.11 2.59h7.77V79.9h-3.89V64.36h-7.22V79.9h-3.88V60.84h3.51l1.12-2.59h-5.38zM120.11 56.77h3.71v25.17h-3.71z"/></svg>